<?xml version="1.0" encoding="UTF-8" standalone="no"?>
<svg
   xmlns:dc="http://purl.org/dc/elements/1.1/"
   xmlns:cc="http://creativecommons.org/ns#"
   xmlns:rdf="http://www.w3.org/1999/02/22-rdf-syntax-ns#"
   xmlns:svg="http://www.w3.org/2000/svg"
   xmlns="http://www.w3.org/2000/svg"
   xmlns:sodipodi="http://sodipodi.sourceforge.net/DTD/sodipodi-0.dtd"
   xmlns:inkscape="http://www.inkscape.org/namespaces/inkscape"
   version="1.0"
   width="1280.000000pt"
   height="732.000000pt"
   viewBox="0 0 1280.000000 732.000000"
   preserveAspectRatio="xMidYMid meet"
   id="svg8"
   sodipodi:docname="sticks.svg"
   inkscape:version="1.0.1 (3bc2e813f5, 2020-09-07)">
  <defs
     id="defs12" />
  <sodipodi:namedview
     pagecolor="#343cff"
     bordercolor="#666666"
     borderopacity="1"
     objecttolerance="10"
     gridtolerance="10"
     guidetolerance="10"
     inkscape:pageopacity="0"
     inkscape:pageshadow="2"
     inkscape:window-width="1920"
     inkscape:window-height="1017"
     id="namedview10"
     showgrid="false"
     showguides="true"
     inkscape:guide-bbox="true"
     inkscape:zoom="0.71132813"
     inkscape:cx="859.19119"
     inkscape:cy="488"
     inkscape:window-x="-8"
     inkscape:window-y="-8"
     inkscape:window-maximized="1"
     inkscape:current-layer="svg8"
     inkscape:document-rotation="0"
     inkscape:pagecheckerboard="false">
    <sodipodi:guide
       position="-26.359144,-70.372323"
       orientation="0,-1"
       id="guide32" />
  </sodipodi:namedview>
  <metadata
     id="metadata2">
Created by potrace 1.15, written by Peter Selinger 2001-2017
<rdf:RDF>
  <cc:Work
     rdf:about="">
    <dc:format>image/svg+xml</dc:format>
    <dc:type
       rdf:resource="http://purl.org/dc/dcmitype/StillImage" />
    <dc:title></dc:title>
  </cc:Work>
</rdf:RDF>
</metadata>
  <g
     transform="matrix(0.05542445,0,0,-0.05542445,114.45259,457.07579)"
     fill="#cddc39"
     stroke="none"
     id="g6"
     style="fill:#ffffff;fill-opacity:1">
    <path
       d="m 11765,7313 c -16,-1 -77,-8 -135,-14 -58,-7 -118,-11 -135,-11 -51,2 -212,-56 -385,-138 -91,-43 -770,-348 -1510,-678 C 8860,6142 8127,5815 7970,5745 7813,5675 7374,5479 6993,5309 6612,5139 5060,4449 3544,3774 2028,3100 781,2542 773,2534 c -8,-8 -20,-14 -26,-14 -21,0 -154,-67 -214,-108 C 318,2266 102,1951 37,1690 -20,1458 -5,1160 77,920 215,512 540,175 910,57 1033,17 1123,5 1290,6 c 135,1 168,4 254,28 123,33 241,91 337,164 85,65 671,357 2249,1122 4448,2158 7125,3475 8140,4005 291,152 319,173 388,292 46,79 94,210 116,315 23,112 31,307 17,427 -47,398 -293,741 -632,878 -137,55 -296,86 -394,76 z"
       id="path4"
       style="fill:#ffffff;fill-opacity:1" />
  </g>
  <g
     transform="matrix(0.05542445,0,0,-0.05542445,346.95259,625.82579)"
     fill="#cddc39"
     stroke="none"
     id="g26"
     style="fill:#ffffff;fill-opacity:1">
    <path
       d="m 11765,7313 c -16,-1 -77,-8 -135,-14 -58,-7 -118,-11 -135,-11 -51,2 -212,-56 -385,-138 -91,-43 -770,-348 -1510,-678 C 8860,6142 8127,5815 7970,5745 7813,5675 7374,5479 6993,5309 6612,5139 5060,4449 3544,3774 2028,3100 781,2542 773,2534 c -8,-8 -20,-14 -26,-14 -21,0 -154,-67 -214,-108 C 318,2266 102,1951 37,1690 -20,1458 -5,1160 77,920 215,512 540,175 910,57 1033,17 1123,5 1290,6 c 135,1 168,4 254,28 123,33 241,91 337,164 85,65 671,357 2249,1122 4448,2158 7125,3475 8140,4005 291,152 319,173 388,292 46,79 94,210 116,315 23,112 31,307 17,427 -47,398 -293,741 -632,878 -137,55 -296,86 -394,76 z"
       id="path24"
       style="fill:#ffffff;fill-opacity:1" />
  </g>
  <g
     transform="matrix(0.05542445,0,0,-0.05542445,579.45259,794.57579)"
     fill="#cddc39"
     stroke="none"
     id="g30"
     style="fill:#ffffff;fill-opacity:1">
    <path
       d="m 11765,7313 c -16,-1 -77,-8 -135,-14 -58,-7 -118,-11 -135,-11 -51,2 -212,-56 -385,-138 -91,-43 -770,-348 -1510,-678 C 8860,6142 8127,5815 7970,5745 7813,5675 7374,5479 6993,5309 6612,5139 5060,4449 3544,3774 2028,3100 781,2542 773,2534 c -8,-8 -20,-14 -26,-14 -21,0 -154,-67 -214,-108 C 318,2266 102,1951 37,1690 -20,1458 -5,1160 77,920 215,512 540,175 910,57 1033,17 1123,5 1290,6 c 135,1 168,4 254,28 123,33 241,91 337,164 85,65 671,357 2249,1122 4448,2158 7125,3475 8140,4005 291,152 319,173 388,292 46,79 94,210 116,315 23,112 31,307 17,427 -47,398 -293,741 -632,878 -137,55 -296,86 -394,76 z"
       id="path28"
       style="fill:#ffffff;fill-opacity:1" />
  </g>
  <g
     id="g867"
     style="stroke:#ffffff;stroke-opacity:1;stroke-width:6.00000007;stroke-miterlimit:4;stroke-dasharray:none">
    <path
       style="fill:none;stroke:#ffffff;stroke-width:6.00000007;stroke-linecap:butt;stroke-linejoin:miter;stroke-opacity:1;stroke-miterlimit:4;stroke-dasharray:none"
       d="M 807.88304,818.18781 1357.2075,545.10708"
       id="path840" />
    <g
       id="g860"
       style="stroke:#ffffff;stroke-opacity:1;stroke-width:6.00000007;stroke-miterlimit:4;stroke-dasharray:none">
      <path
         style="fill:none;stroke:#ffffff;stroke-width:6.00000007;stroke-linecap:butt;stroke-linejoin:miter;stroke-opacity:1;stroke-miterlimit:4;stroke-dasharray:none"
         d="M 807.88304,818.18781 54.011532,294.16804"
         id="path836" />
      <path
         style="fill:none;stroke:#ffffff;stroke-width:6.00000007;stroke-linecap:butt;stroke-linejoin:miter;stroke-opacity:1;stroke-miterlimit:4;stroke-dasharray:none"
         d="M 1357.2075,545.10708 603.336,21.087318"
         id="path838" />
      <path
         style="fill:none;stroke:#ffffff;stroke-width:6.00000007;stroke-linecap:butt;stroke-linejoin:miter;stroke-opacity:1;stroke-miterlimit:4;stroke-dasharray:none"
         d="M 54.011532,294.16804 603.33602,21.087323"
         id="path840-5" />
    </g>
  </g>
</svg>
